<?xml version="1.0" encoding="UTF-8" standalone="no"?>
<!-- Created with Inkscape (http://www.inkscape.org/) -->

<svg
   width="30mm"
   height="16mm"
   viewBox="0 0 30 16"
   version="1.1"
   id="svg1"
   inkscape:version="1.3.2 (091e20e, 2023-11-25)"
   sodipodi:docname="loot_icon.svg"
   xmlns:inkscape="http://www.inkscape.org/namespaces/inkscape"
   xmlns:sodipodi="http://sodipodi.sourceforge.net/DTD/sodipodi-0.dtd"
   xmlns="http://www.w3.org/2000/svg"
   xmlns:svg="http://www.w3.org/2000/svg">
  <sodipodi:namedview
     id="namedview1"
     pagecolor="#ffffff"
     bordercolor="#000000"
     borderopacity="0.25"
     inkscape:showpageshadow="2"
     inkscape:pageopacity="0.0"
     inkscape:pagecheckerboard="0"
     inkscape:deskcolor="#d1d1d1"
     inkscape:document-units="mm"
     showgrid="true"
     inkscape:zoom="11.716915"
     inkscape:cx="47.623457"
     inkscape:cy="24.494502"
     inkscape:window-width="2490"
     inkscape:window-height="1376"
     inkscape:window-x="2630"
     inkscape:window-y="27"
     inkscape:window-maximized="1"
     inkscape:current-layer="layer1">
    <inkscape:grid
       id="grid1"
       units="mm"
       originx="0"
       originy="0"
       spacingx="0.99999997"
       spacingy="0.99999997"
       empcolor="#0099e5"
       empopacity="0.30196078"
       color="#0099e5"
       opacity="0.14901961"
       empspacing="5"
       dotted="false"
       gridanglex="30"
       gridanglez="30"
       visible="true" />
    <inkscape:grid
       id="grid2"
       units="mm"
       originx="0"
       originy="0"
       spacingx="9.9999999"
       spacingy="16"
       empcolor="#e50000"
       empopacity="0.30196078"
       color="#0099e5"
       opacity="0.14901961"
       empspacing="1"
       dotted="false"
       gridanglex="30"
       gridanglez="30"
       visible="true" />
  </sodipodi:namedview>
  <defs
     id="defs1" />
  <g
     inkscape:label="Layer 1"
     inkscape:groupmode="layer"
     id="layer1">
    <path
       style="font-weight:bold;font-size:14.1111px;fill:#00e12f;stroke-linecap:round;stroke-miterlimit:1.4;stroke:#000000;stroke-opacity:1;stroke-width:0.4;stroke-dasharray:none"
       d="M 5.5387035,13.819501 H 4.4224934 l -0.00689,-2.073946 Q 3.55433,11.711104 2.7481783,11.55263 1.9420266,11.394156 1.177216,11.111658 V 9.3064292 Q 1.9695873,9.7129496 2.775739,9.9334357 3.5887809,10.147032 4.4224934,10.174593 V 8.0317449 L 4.1951173,7.9904038 Q 2.5483629,7.701016 1.8524541,7.0808993 1.1634356,6.4607825 1.1634356,5.2963412 q 0,-1.2333433 0.8406026,-1.9223618 0.8474929,-0.6959088 2.411565,-0.7579204 l 0.00689,-1.5916329 H 5.5387035 V 2.5884982 Q 6.227722,2.6436197 6.9167406,2.7607529 7.6057592,2.877886 8.3016679,3.063921 V 4.8140282 Q 7.6126493,4.5246404 6.9236308,4.3661661 6.2346122,4.2008017 5.5387035,4.1663507 V 6.143834 l 0.2204859,0.041341 q 1.7501072,0.2756074 2.4529061,0.9232849 0.7096891,0.6407873 0.7096891,1.9016911 0,1.267795 -0.8406026,1.949923 -0.8406027,0.675238 -2.5424785,0.771701 z M 4.4224934,5.9853597 V 4.1870213 Q 3.9332902,4.214582 3.6370122,4.4557385 3.3476244,4.6900048 3.3476244,5.0551847 q 0,0.4065209 0.2687173,0.6407872 0.2687172,0.2273762 0.8061517,0.2893878 z m 1.1162101,2.2462005 v 1.9154718 q 0.5994461,-0.0069 0.8957241,-0.2342664 0.3031682,-0.227376 0.3031682,-0.6821284 0,-0.4685328 -0.2756075,-0.6959088 Q 6.1863809,8.3004621 5.5387035,8.2315602 Z"
       id="text1"
       aria-label="$" />
    <path
       style="font-weight:bold;font-size:14.1111px;fill:#c300e1;stroke-linecap:round;stroke-miterlimit:1.4;fill-opacity:1;stroke:#000000;stroke-opacity:1;stroke-width:0.4;stroke-dasharray:none"
       d="m 15.496094,13.819501 h -1.11621 l -0.0069,-2.073945 Q 13.51171,11.711106 12.705559,11.552631 11.899407,11.394157 11.134596,11.111659 V 9.3064296 q 0.792372,0.40652 1.598523,0.627007 0.813041,0.2135964 1.646755,0.2411574 V 8.0317445 L 14.152508,7.9904034 Q 12.505753,7.7010156 11.809844,7.0808989 11.120826,6.4607821 11.120826,5.2963408 q 0,-1.2333433 0.840602,-1.9223618 0.847493,-0.6959088 2.411565,-0.7579204 l 0.0069,-1.5916329 h 1.116211 v 1.5640721 q 0.689017,0.055122 1.378036,0.1722547 0.689018,0.1171331 1.384927,0.3031681 V 4.8140278 Q 17.570039,4.52464 16.881021,4.3661657 16.192001,4.2008013 15.496094,4.1663503 v 1.9774833 l 0.220486,0.041341 q 1.750107,0.2756074 2.452905,0.9232849 0.70969,0.6407873 0.70969,1.9016911 0,1.2677964 -0.840604,1.9499244 -0.840602,0.675238 -2.542477,0.771701 z M 14.379884,5.9853593 V 4.1870209 q -0.489205,0.027561 -0.785482,0.2687172 -0.289387,0.2342663 -0.289387,0.5994462 0,0.4065209 0.268717,0.6407872 0.268717,0.2273762 0.806152,0.2893878 z m 1.11621,2.2462006 v 1.9154731 q 0.599445,-0.0069 0.895724,-0.2342664 0.303168,-0.227377 0.303168,-0.682129 0,-0.468533 -0.275608,-0.6959096 -0.275607,-0.2342663 -0.923284,-0.3031681 z"
       id="text1-5"
       aria-label="$" />
    <path
       style="font-weight:bold;font-size:14.1111px;fill:#e1d500;stroke-linecap:round;stroke-miterlimit:1.4;fill-opacity:1;stroke:#000000;stroke-opacity:1;stroke-width:0.4;stroke-dasharray:none"
       d="m 25.453484,13.819501 h -1.11621 l -0.0069,-2.073945 Q 23.4691,11.711106 22.662949,11.552631 21.856797,11.394157 21.091986,11.111659 V 9.3064297 q 0.792372,0.40652 1.598523,0.627007 0.813041,0.2135963 1.646755,0.2411573 V 8.0317447 l -0.227366,-0.04134 q -1.646755,-0.289389 -2.342664,-0.909506 -0.689018,-0.620117 -0.689018,-1.7845579 0,-1.2333433 0.840602,-1.9223618 0.847493,-0.6959088 2.411565,-0.7579204 l 0.0069,-1.5916329 h 1.116211 v 1.5640721 q 0.689017,0.055122 1.378036,0.1722547 0.689018,0.1171331 1.384927,0.3031681 V 4.8140278 Q 27.527429,4.52464 26.838411,4.3661657 26.149391,4.2008013 25.453484,4.1663503 v 1.9774834 l 0.220486,0.04134 q 1.750107,0.275607 2.452905,0.923285 0.70969,0.640787 0.70969,1.901691 0,1.2677963 -0.840604,1.9499243 -0.840602,0.675238 -2.542477,0.771701 z M 24.337274,5.9853597 V 4.1870209 q -0.489205,0.027561 -0.785482,0.2687172 -0.289387,0.2342663 -0.289387,0.5994462 0,0.4065209 0.268717,0.6407874 0.268717,0.227376 0.806152,0.289388 z m 1.11621,2.2462 v 1.9154733 q 0.599445,-0.0069 0.895724,-0.2342663 0.303168,-0.227377 0.303168,-0.682129 0,-0.468533 -0.275608,-0.69591 -0.275607,-0.234266 -0.923284,-0.303168 z"
       id="text1-5-2"
       aria-label="$" />
  </g>
</svg>
